<svg width="24" height="24" viewBox="0 0 24 24" fill="none" xmlns="http://www.w3.org/2000/svg">
<path opacity="0.4" d="M12 24C18.6274 24 24 18.6274 24 12C24 5.37258 18.6274 0 12 0C5.37258 0 0 5.37258 0 12C0 18.6274 5.37258 24 12 24Z" fill="#7F7F7F"/>
<path d="M11.5 6C9.016 6 7 8.01869 7 10.506C7 12.9453 8.908 14.9279 11.44 15C11.476 15 11.524 15 11.548 15C11.572 15 11.608 15 11.632 15C11.644 15 11.656 15 11.656 15C14.08 14.9159 15.988 12.9453 16 10.506C16 8.01869 13.984 6 11.5 6Z" fill="#7F7F7F"/>
<path d="M20 20.6849C17.8997 22.7365 15.0914 24 12 24C8.90855 24 6.10029 22.7365 4 20.6849C4.28319 19.5465 5.05015 18.5082 6.17109 17.7076C9.39233 15.4308 14.6313 15.4308 17.8289 17.7076C18.9617 18.5082 19.7168 19.5465 20 20.6849Z" fill="#7F7F7F"/>
</svg>
