<svg width="26" height="26" viewBox="0 0 26 26" fill="none" xmlns="http://www.w3.org/2000/svg">
<path d="M23.4758 7.52916C22.7825 5.17833 20.8217 3.2175 18.4708 2.52416C16.6833 2.00416 15.4483 2.0475 14.5925 2.68666C13.5633 3.45583 13.4442 4.8425 13.4442 5.82833V8.52583C13.4442 11.1908 14.6575 12.545 17.0408 12.545H20.15C21.125 12.545 22.5225 12.4258 23.2917 11.3967C23.9525 10.5517 24.0067 9.31666 23.4758 7.52916Z" fill="#7F7F7F"/>
<path opacity="0.4" d="M20.4858 14.4733C20.2042 14.1483 19.7925 13.9642 19.37 13.9642H15.4917C13.585 13.9642 12.0358 12.415 12.0358 10.5083V6.62999C12.0358 6.20749 11.8517 5.79583 11.5267 5.51416C11.2125 5.23249 10.7792 5.10249 10.3675 5.15666C7.82168 5.48166 5.48168 6.87916 3.95418 8.98083C2.41585 11.0933 1.85251 13.6717 2.34001 16.25C3.04418 19.9767 6.02335 22.9558 9.76085 23.66C10.3567 23.7792 10.9525 23.8333 11.5483 23.8333C13.5092 23.8333 15.405 23.2267 17.0192 22.0458C19.1208 20.5183 20.5183 18.1783 20.8433 15.6325C20.8975 15.21 20.7675 14.7875 20.4858 14.4733Z" fill="#7F7F7F"/>
</svg>
