<svg width="26" height="26" viewBox="0 0 26 26" fill="none" xmlns="http://www.w3.org/2000/svg">
<path opacity="0.4" d="M22.1 17.6908C21.7967 18.5033 21.1575 19.1208 20.3234 19.4025C19.1534 19.7925 17.9509 20.085 16.7375 20.2908C16.6184 20.3125 16.4992 20.3342 16.38 20.345C16.185 20.3775 15.99 20.3992 15.795 20.4208C15.5567 20.4533 15.3075 20.475 15.0583 20.4967C14.3758 20.5508 13.7042 20.5833 13.0217 20.5833C12.3284 20.5833 11.635 20.5508 10.9525 20.4858C10.66 20.4642 10.3783 20.4317 10.0967 20.3883C9.93418 20.3667 9.77168 20.345 9.62002 20.3233C9.50085 20.3017 9.38168 20.2908 9.26252 20.2692C8.06002 20.0742 6.86835 19.7817 5.70918 19.3917C4.84252 19.0992 4.18168 18.4817 3.88918 17.6908C3.59668 16.9108 3.70502 16.0008 4.17085 15.2208L5.39502 13.1842C5.65502 12.74 5.89335 11.8842 5.89335 11.3642V9.34916C5.89335 5.41666 9.08918 2.22083 13.0217 2.22083C16.9434 2.22083 20.1392 5.41666 20.1392 9.34916V11.3642C20.1392 11.8842 20.3775 12.74 20.6483 13.1842L21.8725 15.2208C22.3167 15.9792 22.4033 16.8675 22.1 17.6908Z" fill="#7F7F7F"/>
<path d="M13 11.6567C12.545 11.6567 12.1766 11.2883 12.1766 10.8333V7.47501C12.1766 7.02001 12.545 6.65167 13 6.65167C13.455 6.65167 13.8233 7.02001 13.8233 7.47501V10.8333C13.8125 11.2883 13.4441 11.6567 13 11.6567Z" fill="#7F7F7F"/>
<path d="M16.0658 21.6775C15.6108 22.9342 14.4083 23.8333 13 23.8333C12.1442 23.8333 11.2992 23.4867 10.7033 22.8692C10.3567 22.5442 10.0967 22.1108 9.94501 21.6667C10.0858 21.6883 10.2267 21.6992 10.3783 21.7208C10.6275 21.7533 10.8875 21.7858 11.1475 21.8075C11.765 21.8617 12.3933 21.8942 13.0217 21.8942C13.6392 21.8942 14.2567 21.8617 14.8633 21.8075C15.0908 21.7858 15.3183 21.775 15.535 21.7425C15.7083 21.7208 15.8817 21.6992 16.0658 21.6775Z" fill="#7F7F7F"/>
</svg>
