<svg width="26" height="26" viewBox="0 0 26 26" fill="none" xmlns="http://www.w3.org/2000/svg">
<path opacity="0.4" d="M23.1509 12.3392V18.8283C23.1509 21.8183 20.7242 24.245 17.7342 24.245H8.26585C5.27585 24.245 2.84918 21.8183 2.84918 18.8283V12.415C3.67252 13.3033 4.84252 13.8125 6.11002 13.8125C7.47502 13.8125 8.78585 13.13 9.60918 12.0358C10.3458 13.13 11.6025 13.8125 13 13.8125C14.3867 13.8125 15.6217 13.1625 16.3692 12.0792C17.2033 13.1517 18.4925 13.8125 19.8358 13.8125C21.1467 13.8125 22.3384 13.2817 23.1509 12.3392Z" fill="#7F7F7F"/>
<path d="M16.2391 1.35417H9.73915L8.93748 9.3275C8.87248 10.0642 8.98082 10.7575 9.25165 11.3858C9.87998 12.8592 11.3533 13.8125 13 13.8125C14.6683 13.8125 16.1091 12.8808 16.7591 11.3967C16.9541 10.9308 17.0733 10.3892 17.0841 9.83667V9.63083L16.2391 1.35417Z" fill="#7F7F7F"/>
<path opacity="0.6" d="M24.2234 8.95917L23.9092 5.95833C23.4542 2.68667 21.97 1.35417 18.7959 1.35417H14.6359L15.4375 9.47917C15.4484 9.5875 15.4592 9.70667 15.4592 9.9125C15.5242 10.4758 15.6975 10.9958 15.9575 11.4617C16.7375 12.8917 18.2542 13.8125 19.8359 13.8125C21.2767 13.8125 22.5767 13.1733 23.3892 12.0467C24.0392 11.18 24.3317 10.0858 24.2234 8.95917Z" fill="#7F7F7F"/>
<path opacity="0.6" d="M7.13915 1.35417C3.95415 1.35417 2.48082 2.68667 2.01499 5.99083L1.72249 8.97C1.61415 10.1292 1.92832 11.2558 2.61082 12.1333C3.43415 13.2058 4.70165 13.8125 6.10999 13.8125C7.69165 13.8125 9.20832 12.8917 9.97749 11.4833C10.2592 10.9958 10.4433 10.4325 10.4975 9.8475L11.3425 1.365H7.13915V1.35417Z" fill="#7F7F7F"/>
<path d="M12.2958 18.0483C10.92 18.1892 9.88 19.3592 9.88 20.7458V24.245H16.1092V21.125C16.12 18.8608 14.7875 17.7883 12.2958 18.0483Z" fill="#7F7F7F"/>
</svg>
