<svg xmlns="http://www.w3.org/2000/svg" xmlns:v="https://svgstorm.com"
viewBox = "0 0 330 330"
width="330"
height="330">
<g fill="#000000" fill-opacity="0.00" stroke="None"><path d="
M 0.00 147.00 
C 6.80 72.46 72.56 6.82 147.00 0.00
L 0.00 0.00
L 0.00 147.00 Z"/>
</g>
<g fill="#EC7905" fill-opacity="1.00" stroke="None"><path d="
M 0.00 147.00 
L 0.00 183.00
C 6.80 257.54 72.56 323.18 147.00 330.00
L 183.00 330.00
C 257.50 323.15 323.22 257.48 330.00 183.00
L 330.00 147.00
C 323.21 72.45 257.43 6.84 183.00 0.00
L 147.00 0.00
C 72.56 6.82 6.80 72.46 0.00 147.00
M 167.00 20.00 
C 243.44 20.11 312.34 89.53 309.67 166.67 C 310.34 243.77 240.27 312.17 163.32 309.66 C 86.23 310.34 17.84 240.27 20.34 163.32 C 19.70 85.92 89.79 18.13 167.00 20.00 Z"/>
</g>
<g fill="#000000" fill-opacity="0.00" stroke="None"><path d="
M 330.00 147.00 
L 330.00 0.00
L 183.00 0.00
C 257.43 6.84 323.21 72.45 330.00 147.00 Z"/>
</g>
<g fill="#000000" fill-opacity="0.00" stroke="None"><path d="
M 167.00 20.00 
C 89.79 18.13 19.70 85.92 20.34 163.32 C 17.84 240.27 86.23 310.34 163.32 309.66 C 240.27 312.17 310.34 243.77 309.67 166.67 C 312.34 89.53 243.44 20.11 167.00 20.00 Z"/>
</g>
<g fill="#EC7905" fill-opacity="1.00" stroke="None"><path d="
M 213.00 115.00 
C 214.54 125.60 216.60 136.87 211.98 146.98 C 211.12 153.55 199.98 167.35 195.00 160.00 C 206.98 114.27 178.94 61.01 133.00 48.00
C 148.23 80.49 146.76 127.52 116.00 150.00
C 113.39 138.53 113.45 126.14 107.00 116.00
C 73.60 149.48 61.08 215.18 98.25 251.75 C 132.75 288.64 198.24 285.05 230.23 246.23 C 263.29 208.24 253.34 144.06 213.00 115.00
M 163.00 152.00 
C 172.39 160.94 170.39 176.81 184.23 180.77 C 222.20 201.92 207.44 266.43 163.00 265.00 C 119.21 266.52 102.62 201.35 140.70 180.70 C 154.80 177.13 150.81 158.01 163.00 152.00 Z"/>
</g>
<g fill="#EB7905" fill-opacity="1.00" stroke="None"><path d="
M 111.00 65.00 
C 94.09 58.50 83.91 83.35 99.33 90.67 C 116.28 97.57 125.50 72.72 111.00 65.00 Z"/>
</g>
<g fill="#EB7905" fill-opacity="1.00" stroke="None"><path d="
M 225.00 65.00 
C 208.09 58.50 197.91 83.35 213.33 90.67 C 230.28 97.57 239.50 72.72 225.00 65.00 Z"/>
</g>
<g fill="#EB7905" fill-opacity="1.00" stroke="None"><path d="
M 71.00 99.00 
C 53.38 92.56 43.96 119.47 60.33 125.67 C 77.90 132.46 86.53 105.72 71.00 99.00 Z"/>
</g>
<g fill="#EB7905" fill-opacity="1.00" stroke="None"><path d="
M 265.00 99.00 
C 248.09 92.50 237.91 117.35 253.33 124.67 C 270.28 131.57 279.50 106.72 265.00 99.00 Z"/>
</g>
<g fill="#EB7905" fill-opacity="1.00" stroke="None"><path d="
M 54.00 152.00 
C 37.09 145.50 26.91 170.35 42.33 177.67 C 59.28 184.57 68.50 159.72 54.00 152.00 Z"/>
</g>
<g fill="#000000" fill-opacity="0.00" stroke="None"><path d="
M 163.00 152.00 
C 150.81 158.01 154.80 177.13 140.70 180.70 C 102.62 201.35 119.21 266.52 163.00 265.00 C 207.44 266.43 222.20 201.92 184.23 180.77 C 170.39 176.81 172.39 160.94 163.00 152.00 Z"/>
</g>
<g fill="#EB7905" fill-opacity="1.00" stroke="None"><path d="
M 283.00 152.00 
C 266.09 145.50 255.91 170.35 271.33 177.67 C 288.28 184.57 297.50 159.72 283.00 152.00 Z"/>
</g>
<g fill="#000000" fill-opacity="0.00" stroke="None"><path d="
M 0.00 330.00 
L 147.00 330.00
C 72.56 323.18 6.80 257.54 0.00 183.00
L 0.00 330.00 Z"/>
</g>
<g fill="#000000" fill-opacity="0.00" stroke="None"><path d="
M 183.00 330.00 
L 330.00 330.00
L 330.00 183.00
C 323.22 257.48 257.50 323.15 183.00 330.00 Z"/>
</g>
<g fill="#EC7905" fill-opacity="1.00" stroke="None"><path d="
M 171.00 194.00 
C 148.67 188.36 128.11 210.29 136.08 231.92 C 142.25 251.53 171.07 256.79 184.25 241.25 C 198.35 226.45 190.25 199.34 171.00 194.00
M 160.00 206.00 
C 166.41 213.12 156.70 224.66 148.33 221.67 C 141.80 215.04 151.98 203.95 160.00 206.00 Z"/>
</g>
<g fill="#000000" fill-opacity="0.00" stroke="None"><path d="
M 160.00 206.00 
C 151.98 203.95 141.80 215.04 148.33 221.67 C 156.70 224.66 166.41 213.12 160.00 206.00 Z"/>
</g>
</svg>